<?xml version="1.0" encoding="iso-8859-1"?>
<!-- Generator: Adobe Illustrator 19.0.0, SVG Export Plug-In . SVG Version: 6.00 Build 0)  -->
<svg version="1.1" id="Layer_1" xmlns="http://www.w3.org/2000/svg" xmlns:xlink="http://www.w3.org/1999/xlink" x="0px" y="0px"
	 viewBox="0 0 505 505" style="enable-background:new 0 0 505 505;" xml:space="preserve">
<circle style="fill:#84DBFF;" cx="252.5" cy="252.5" r="252.5"/>
<path style="fill:#324A5E;" d="M428.6,154.4c0,0-27.2,118.4-44.9,158.5l-46.8,129.5l-51.1-18.2c0,0,56.2-167,39.1-179.9L371.1,131
	L428.6,154.4z"/>
<polygon style="fill:#2B3B4E;" points="407.6,195.9 390,243.3 362.2,250.7 345.8,235.2 358.5,183.1 "/>
<path style="fill:#324A5E;" d="M313.6,107.6c0,0-63.3,103.7-78.7,144.7l-57,125.3l49.3,22.7c0,0,76.5-158.8,97.7-156L371.1,131
	L313.6,107.6z"/>
<path style="fill:#2B3B4E;" d="M428.6,154.4L371.1,131l-57.5-23.4c0,0-4.6,7.5-11.6,19.3l60.7,24.7l60.7,24.7
	C426.6,163,428.6,154.4,428.6,154.4z"/>
<path style="fill:#E6E9EE;" d="M311.5,111.1c-1.7,2.8-4.3,7.1-7.5,12.5l120.3,49c1.5-6.1,2.6-11,3.4-14.2L311.5,111.1z"/>
<polygon style="fill:#2B3B4E;" points="299.7,151.9 279.1,198.1 293.8,222.8 316.4,223.2 343.7,177.1 "/>
<g>
	
		<rect x="405.693" y="147.593" transform="matrix(-0.9261 -0.3772 0.3772 -0.9261 729.2597 460.2025)" style="fill:#324A5E;" width="8" height="22.199"/>
	
		<rect x="320.185" y="112.816" transform="matrix(-0.9261 -0.3773 0.3773 -0.9261 577.6569 360.9883)" style="fill:#324A5E;" width="8" height="22.2"/>
	
		<rect x="362.894" y="130.201" transform="matrix(-0.9261 -0.3773 0.3773 -0.9261 653.36 410.5872)" style="fill:#324A5E;" width="8" height="22.2"/>
</g>
<g>
	<path style="fill:#ACB3BA;" d="M350.1,418.8l-60.7-21.3c-0.4-0.2-0.9,0.1-1.1,0.5l-9.3,26.5c-0.2,0.4,0.1,0.9,0.5,1.1l60.7,21.3
		c0.4,0.2,0.9-0.1,1.1-0.5l9.3-26.5C350.7,419.4,350.5,418.9,350.1,418.8z"/>
	<path style="fill:#ACB3BA;" d="M183.8,351l58.3,27.2c0.4,0.2,0.6,0.7,0.4,1.1l-11.9,25.4c-0.2,0.4-0.7,0.6-1.1,0.4l-58.3-27.2
		c-0.4-0.2-0.6-0.7-0.4-1.1l11.9-25.4C182.9,351,183.4,350.8,183.8,351z"/>
</g>
<g>
	<path style="fill:#FFFFFF;" d="M161,317.5l113.2-40.1c-17.1-39.8-40.6-113.7-40.6-113.7l32.9-30.2l-42.7-48.2
		c-2.3-1.9-47.7-2.2-47.7-2.2l0,0c2.4,1.5,4.2,3.5,5,5.9c3.4,9.7-8.6,22.8-26.9,29.3s-35.9,3.9-39.4-5.8c-0.9-2.4-0.7-5.1,0.2-7.8
		l0,0c0,0-35.1,28.8-35.7,31.7l-2.9,64.3l44.6,2.8C121,203.6,149.2,275.9,161,317.5z"/>
	<path style="fill:#FFFFFF;" d="M274.2,277.4L161,317.5c-11.8-41.6-40-113.9-40-113.9l-44.6-2.8l2.9-64.3c0.5-2.3,21.5-20,31.1-27.9
		c2.8-2.3,4.6-3.8,4.6-3.8l0,0c-0.9,2.7-1,5.3-0.2,7.7c3.4,9.7,21.1,12.3,39.4,5.8c18.3-6.5,30.4-19.6,26.9-29.3
		c-0.9-2.4-2.6-4.4-5-5.9l0,0c0,0,2.4,0,6,0.1c12.4,0.1,39.9,0.7,41.7,2.1l42.7,48.2l-32.9,30.3
		C233.6,163.8,257.2,237.7,274.2,277.4z"/>
</g>
<g>
	<path style="fill:#E6E9EE;" d="M181.1,89.1c3.4,9.7-8.6,22.8-26.9,29.3s-35.9,3.9-39.4-5.8c-0.9-2.4-0.7-5.1,0.2-7.8l0,0
		c9.6-2,20.2-4.9,31.2-8.8s21.2-8.3,29.8-12.8l0,0C178.5,84.7,180.3,86.7,181.1,89.1z"/>
	<path style="fill:#E6E9EE;" d="M181.1,89.1c0.4,1.1,0.6,2.2,0.6,3.4c0,9.2-11.3,20.2-27.5,25.9c-16.3,5.8-31.9,4.3-37.7-2.8
		c-0.7-0.9-1.3-1.9-1.7-3c-0.8-2.3-0.8-4.7,0-7.3c0.1-0.2,0.1-0.3,0.1-0.5l0,0c0.1,0,0.2,0,0.3-0.1c5.5-1.1,11.2-2.6,17.3-4.4
		c4.5-1.3,9-2.8,13.7-4.4c4.6-1.6,9.1-3.4,13.4-5.2c5.8-2.4,11.2-4.9,16.1-7.5c0.1-0.1,0.2-0.1,0.3-0.1l0,0c0.1,0.1,0.3,0.2,0.4,0.3
		C178.7,84.9,180.3,86.8,181.1,89.1z"/>
	<polygon style="fill:#E6E9EE;" points="266.5,133.5 223.8,85.4 222,102.8 225.7,135.1 233.6,163.8 	"/>
	<path style="fill:#E6E9EE;" d="M223.8,85.4c0,0-8.2,24.9,9.8,78.4l2.5-2.3C236.1,161.5,221.2,126.9,223.8,85.4z"/>
	<polygon style="fill:#E6E9EE;" points="76.4,200.9 79.2,136.6 91.7,149 109.1,176.4 121,203.6 	"/>
	<path style="fill:#E6E9EE;" d="M79.2,136.6c0,0,22,14.2,41.8,67.1l-3.3-0.2C117.7,203.4,107.5,167.2,79.2,136.6z"/>
</g>
<g>
</g>
<g>
</g>
<g>
</g>
<g>
</g>
<g>
</g>
<g>
</g>
<g>
</g>
<g>
</g>
<g>
</g>
<g>
</g>
<g>
</g>
<g>
</g>
<g>
</g>
<g>
</g>
<g>
</g>
</svg>
