<?xml version="1.0" encoding="iso-8859-1"?>
<!-- Generator: Adobe Illustrator 19.0.0, SVG Export Plug-In . SVG Version: 6.00 Build 0)  -->
<svg version="1.1" id="Layer_1" xmlns="http://www.w3.org/2000/svg" xmlns:xlink="http://www.w3.org/1999/xlink" x="0px" y="0px"
	 viewBox="0 0 512 512" style="enable-background:new 0 0 512 512;" xml:space="preserve">
<g>
	<g>
		<path d="M415.355,148.48c-3.413-4.267-7.68-6.827-11.093-7.68l-57.173-36.693c-2.56-1.707-5.12-1.707-7.68-1.707
			c-2.56,0.853-4.267,2.56-5.12,5.12c-0.853,1.707-0.853,3.413-1.707,4.267L265.168,71.68V59.733c0-5.12-3.413-8.533-8.533-8.533
			c-9.387,0-17.067-7.68-17.067-17.067c0-9.387,7.68-17.067,17.067-17.067s17.067,7.68,17.067,17.067
			c0,5.12,3.413,8.533,8.533,8.533s8.533-3.413,8.533-8.533C290.768,15.36,275.408,0,256.635,0
			c-18.773,0-34.133,15.36-34.133,34.133c0,16.213,11.093,29.013,25.6,33.28v5.12l-67.413,40.107
			c-1.707-3.413-2.56-7.68-6.827-9.387c-4.267-1.707-7.68,0.853-11.947,3.413c-3.413,2.56-6.827,4.267-11.093,6.827
			c-5.12,3.413-9.387,5.973-14.507,9.387c-3.413,2.56-7.68,5.12-12.8,8.533c-3.413,2.56-6.827,4.267-11.093,6.827
			c-1.707,0.853-2.56,1.707-4.267,2.56c-4.267,0.853-7.68,3.413-11.093,7.68c-39.253,46.08-52.053,223.573-42.667,321.707
			c0,3.413,2.56,5.973,5.12,6.827v17.92c0,9.387,7.68,17.067,17.067,17.067h25.6c9.387,0,17.067-7.68,17.067-17.067V476.16
			c1.707-0.853,2.56-2.56,3.413-5.12c0,0,2.56-11.093,5.973-24.747l8.533,25.6c0.853,3.413,4.267,5.973,7.68,5.973v17.067
			c0,9.387,7.68,17.067,17.067,17.067h187.733c9.387,0,17.067-7.68,17.067-17.067v-17.067c3.413,0,6.827-2.56,7.68-5.973l8.533-25.6
			c3.413,12.8,5.973,24.747,5.973,24.747c0,1.707,1.707,4.267,3.413,5.12v18.773c0,9.387,7.68,17.067,17.067,17.067h25.6
			c9.387,0,17.067-7.68,17.067-17.067v-17.92c2.56-0.853,5.12-3.413,5.12-6.827C467.408,372.053,454.608,193.707,415.355,148.48z
			 M127.781,185.173c0,0.853,0,1.707,0,2.56v0.853c0,0.853,0,1.707,0,1.707c-6.827,58.027-9.387,102.4-9.387,138.24
			s1.707,62.293,3.413,80.213c-5.973,17.067-11.093,40.96-13.653,52.053H71.461c-12.8-155.307,22.187-284.16,39.253-302.08
			c0.853,0,0.853,0.853,1.707,0.853c0.853,0.853,1.707,1.707,2.56,1.707c0.853,0.853,1.707,1.707,2.56,2.56s1.707,1.707,1.707,2.56
			c0.853,0.853,1.707,1.707,1.707,2.56c0.853,0.853,0.853,1.707,1.707,2.56s0.853,1.707,1.707,2.56c0,0.853,0.853,1.707,0.853,2.56
			c0,0.853,0.853,1.707,0.853,2.56c0,0.853,0.853,0.853,0.853,1.707c0,0.853,0.853,1.707,0.853,2.56
			C127.781,184.32,127.781,184.32,127.781,185.173z M202.875,460.8l53.76-93.013l53.76,93.013H202.875z M207.141,421.547
			c4.267-22.187,6.827-46.08,6.827-88.747c0-7.68,0-16.213,0-23.893c0-1.707,0-3.413,0-5.12c0-3.413,0-7.68,0-11.093l34.133,58.88
			L207.141,421.547z M306.981,421.547l-40.96-69.973l34.133-58.027c0,3.413,0,6.827,0,10.24c0,1.707-0.853,3.413-0.853,5.973
			c0,7.68,0,15.36,0,23.04C299.301,375.467,301.861,399.36,306.981,421.547z M310.395,191.147c0,1.707-0.853,2.56-0.853,4.267
			c-1.707,7.68-2.56,15.36-3.413,23.893c0,0.853,0,2.56-0.853,3.413c-1.707,10.24-2.56,21.333-3.413,32.427l-45.227,78.507
			l-46.08-80.213c-0.853-7.68-1.707-14.507-2.56-21.333c0-1.707,0-3.413-0.853-4.267c-0.853-6.827-1.707-13.653-2.56-20.48
			c0,0,0,0,0-0.853c-0.853-5.973-1.707-11.947-3.413-17.92h110.08C311.248,189.44,311.248,190.293,310.395,191.147z M307.835,128
			h-102.4c-4.267,0-8.533-0.853-11.947-3.413l63.147-37.547l64,38.4C317.221,127.147,312.955,128,307.835,128z M440.955,461.653
			h-36.693c-1.707-11.947-6.827-35.84-13.653-51.2c1.707-18.773,3.413-45.227,3.413-80.213c0-35.84-2.56-80.213-9.387-138.24
			c0-0.853,0-0.853,0-1.707v-0.853c0-0.853,0-1.707,0-2.56s0-0.853,0-1.707s0-1.707,0.853-2.56c0-0.853,0-0.853,0.853-1.707
			c0-0.853,0.853-1.707,0.853-2.56s0.853-1.707,0.853-1.707c0.853-0.853,0.853-1.707,1.707-3.413c0-0.853,0.853-1.707,1.707-2.56
			s1.707-1.707,1.707-3.413c0.853-0.853,0.853-1.707,1.707-1.707c0.853-0.853,1.707-1.707,2.56-2.56s1.707-1.707,2.56-1.707
			s0.853-0.853,1.707-0.853C418.768,178.347,453.755,307.2,440.955,461.653z"/>
	</g>
</g>
<g>
</g>
<g>
</g>
<g>
</g>
<g>
</g>
<g>
</g>
<g>
</g>
<g>
</g>
<g>
</g>
<g>
</g>
<g>
</g>
<g>
</g>
<g>
</g>
<g>
</g>
<g>
</g>
<g>
</g>
</svg>
