<?xml version="1.0" encoding="iso-8859-1"?>
<!-- Generator: Adobe Illustrator 19.0.0, SVG Export Plug-In . SVG Version: 6.00 Build 0)  -->
<svg version="1.1" id="Layer_1" xmlns="http://www.w3.org/2000/svg" xmlns:xlink="http://www.w3.org/1999/xlink" x="0px" y="0px"
	 viewBox="0 0 512.003 512.003" style="enable-background:new 0 0 512.003 512.003;" xml:space="preserve">
<g>
	<g>
		<g>
			<path d="M469.335,93.869h-25.6v-25.6c0-14.114-11.486-25.6-25.6-25.6h-45.926l-65.903,131.814
				c-1.451,2.901-4.412,4.719-7.637,4.719h-0.196c-3.302-0.077-6.263-2.057-7.603-5.069l-29.67-66.756l-24.508,26.735
				c-3.268,3.567-9.31,3.567-12.578,0l-22.468-24.508l-31.71,64.529c-1.34,3.012-4.301,4.992-7.603,5.069h-0.196
				c-3.226,0-6.187-1.818-7.637-4.719L88.594,42.669H42.668c-14.114,0-25.6,11.486-25.6,25.6v366.933
				c0,14.114,11.486,25.6,25.6,25.6h25.6v25.6c0,14.114,11.486,25.6,25.6,25.6h375.467c14.114,0,25.6-11.486,25.6-25.6V119.469
				C494.935,105.355,483.449,93.869,469.335,93.869z M307.201,221.869c0-4.71,3.823-8.533,8.533-8.533h68.267
				c4.71,0,8.533,3.823,8.533,8.533v85.333c0,4.71-3.823,8.533-8.533,8.533h-68.267c-4.71,0-8.533-3.823-8.533-8.533V221.869z
				 M230.401,196.269c4.71,0,8.533,3.823,8.533,8.533s-3.823,8.533-8.533,8.533c-4.71,0-8.533-3.823-8.533-8.533
				S225.691,196.269,230.401,196.269z M230.401,256.003c4.71,0,8.533,3.823,8.533,8.533s-3.823,8.533-8.533,8.533
				c-4.71,0-8.533-3.823-8.533-8.533S225.691,256.003,230.401,256.003z M230.401,315.736c4.71,0,8.533,3.823,8.533,8.533
				s-3.823,8.533-8.533,8.533c-4.71,0-8.533-3.823-8.533-8.533S225.691,315.736,230.401,315.736z M230.401,375.469
				c4.71,0,8.533,3.823,8.533,8.533s-3.823,8.533-8.533,8.533c-4.71,0-8.533-3.823-8.533-8.533S225.691,375.469,230.401,375.469z
				 M477.868,486.403c0,4.702-3.831,8.533-8.533,8.533H93.868c-4.702,0-8.533-3.831-8.533-8.533v-25.6h332.8
				c14.114,0,25.6-11.486,25.6-25.6V110.936h25.6c4.702,0,8.533,3.831,8.533,8.533V486.403z"/>
			<rect x="324.268" y="230.398" width="51.2" height="68.267"/>
			<path d="M189.17,95.991L147.894,50.97v-0.009l-2.44-2.662c4.011-15.3,39.023-31.232,84.949-31.232
				c45.926,0,80.939,15.932,84.949,31.232l-2.44,2.662c0,0,0,0.009-0.009,0.009l-39.125,42.684l25.353,57.02l53.999-108.006h-21.35
				c-0.128,0-0.256,0.043-0.384,0.043C323.749,17.86,282.951,0,230.403,0c-52.548,0-93.346,17.86-101.001,42.709
				c-0.128,0-0.247-0.043-0.375-0.043h-21.35l53.999,108.006L189.17,95.991z"/>
		</g>
	</g>
</g>
<g>
</g>
<g>
</g>
<g>
</g>
<g>
</g>
<g>
</g>
<g>
</g>
<g>
</g>
<g>
</g>
<g>
</g>
<g>
</g>
<g>
</g>
<g>
</g>
<g>
</g>
<g>
</g>
<g>
</g>
</svg>
